<svg width="25" height="26" viewBox="0 0 25 26" fill="none" xmlns="http://www.w3.org/2000/svg">
<g clip-path="url(#clip0_496_23816)">
<path d="M3.12162 16.973H16.9459C21.3697 16.973 24.973 13.3698 24.973 8.94597C24.973 4.52219 21.3697 0.918945 16.9459 0.918945C12.5222 0.918945 8.91892 4.52219 8.91892 8.94597C8.91892 11.47 10.0873 13.7176 11.9157 15.1892H3.12162C1.40027 15.1892 0 16.5895 0 18.3108C0 20.0322 1.40027 21.4325 3.12162 21.4325H18.2838C19.0241 21.4325 19.6216 22.03 19.6216 22.7703C19.6216 23.5106 19.0241 24.1081 18.2838 24.1081H13.3784C12.8878 24.1081 12.4865 24.5095 12.4865 25C12.4865 25.4906 12.8878 25.8919 13.3784 25.8919H18.2838C20.0051 25.8919 21.4054 24.4916 21.4054 22.7703C21.4054 21.0489 20.0051 19.6487 18.2838 19.6487H3.12162C2.38135 19.6487 1.78378 19.0511 1.78378 18.3108C1.78378 17.5706 2.38135 16.973 3.12162 16.973ZM10.7027 8.94597C10.7027 5.50327 13.5032 2.70273 16.9459 2.70273C20.3886 2.70273 23.1892 5.50327 23.1892 8.94597C23.1892 12.3887 20.3886 15.1892 16.9459 15.1892C13.5032 15.1892 10.7027 12.3887 10.7027 8.94597Z" fill="#FFFFEC"/>
<path d="M16.9466 3.59473C16.456 3.59473 16.0547 3.99608 16.0547 4.48662V6.2704C16.0547 6.76094 16.456 7.16229 16.9466 7.16229C17.4371 7.16229 17.8385 6.76094 17.8385 6.2704V4.48662C17.8385 3.99608 17.4371 3.59473 16.9466 3.59473Z" fill="#FFFFEC"/>
<path d="M16.9466 10.7297C16.456 10.7297 16.0547 11.1311 16.0547 11.6216V13.4054C16.0547 13.896 16.456 14.2973 16.9466 14.2973C17.4371 14.2973 17.8385 13.896 17.8385 13.4054V11.6216C17.8385 11.1311 17.4371 10.7297 16.9466 10.7297Z" fill="#FFFFEC"/>
<path d="M22.298 8.94609C22.298 8.45555 21.8967 8.0542 21.4061 8.0542H19.6224C19.1318 8.0542 18.7305 8.45555 18.7305 8.94609C18.7305 9.43663 19.1318 9.83798 19.6224 9.83798H21.4061C21.8967 9.83798 22.298 9.43663 22.298 8.94609Z" fill="#FFFFEC"/>
<path d="M14.2694 8.0542H12.4856C11.9951 8.0542 11.5938 8.45555 11.5938 8.94609C11.5938 9.43663 11.9951 9.83798 12.4856 9.83798H14.2694C14.76 9.83798 15.1613 9.43663 15.1613 8.94609C15.1613 8.45555 14.76 8.0542 14.2694 8.0542Z" fill="#FFFFEC"/>
</g>
<defs>
<clipPath id="clip0_496_23816">
<rect width="24.973" height="24.973" fill="white" transform="translate(0 0.918945)"/>
</clipPath>
</defs>
</svg>
