<?xml version="1.0" encoding="UTF-8" standalone="no"?>
<svg
   width="14"
   height="14"
   viewBox="0 0 14 14"
   fill="none"
   version="1.1"
   id="svg80"
   sodipodi:docname="recording.svg"
   inkscape:version="1.1 (c4e8f9e, 2021-05-24)"
   xmlns:inkscape="http://www.inkscape.org/namespaces/inkscape"
   xmlns:sodipodi="http://sodipodi.sourceforge.net/DTD/sodipodi-0.dtd"
   xmlns="http://www.w3.org/2000/svg"
   xmlns:svg="http://www.w3.org/2000/svg">
  <sodipodi:namedview
     id="namedview82"
     pagecolor="#ffffff"
     bordercolor="#666666"
     borderopacity="1.0"
     inkscape:pageshadow="2"
     inkscape:pageopacity="0.0"
     inkscape:pagecheckerboard="0"
     showgrid="false"
     inkscape:zoom="25.978397"
     inkscape:cx="6.0627298"
     inkscape:cy="8.4878217"
     inkscape:window-width="1312"
     inkscape:window-height="813"
     inkscape:window-x="0"
     inkscape:window-y="23"
     inkscape:window-maximized="0"
     inkscape:current-layer="svg80" />
  <g
     clip-path="url(#clip0_372_6823)"
     id="g73">
    <path
       style="color:#000000;fill:#ffffec;-inkscape-stroke:none"
       d="M 1.75,9 H 9.5 C 11.98,9 14,6.98 14,4.5 14,2.02 11.98,0 9.5,0 7.02,0 5,2.02 5,4.5 5,5.915 5.655,7.175 6.68,8 H 1.75 C 0.785,8 0,8.785 0,9.75 0,10.715 0.785,11.5 1.75,11.5 h 8.5 C 10.665,11.5 11,11.835 11,12.25 11,12.665 10.665,13 10.25,13 H 7.5 C 7.225,13 7,13.225 7,13.5 7,13.775 7.225,14 7.5,14 h 2.75 C 11.215,14 12,13.215 12,12.25 12,11.285 11.215,10.5 10.25,10.5 H 1.75 C 1.335,10.5 1,10.165 1,9.75 1,9.335 1.335,9 1.75,9 Z M 6,4.5 C 6,2.57 7.57,1 9.5,1 11.43,1 13,2.57 13,4.5 13,6.43 11.43,8 9.5,8 7.57,8 6,6.43 6,4.5 Z"
       id="path63" />
    <path
       style="color:#000000;fill:#ffffec;-inkscape-stroke:none"
       d="M 9.5,1.5 C 9.225,1.5 9,1.725 9,2 V 3 C 9,3.275 9.225,3.5 9.5,3.5 9.775,3.5 10,3.275 10,3 V 2 C 10,1.725 9.775,1.5 9.5,1.5 Z"
       id="path65" />
    <path
       style="color:#000000;fill:#ffffec;-inkscape-stroke:none"
       d="M 9.5,5.5 C 9.225,5.5 9,5.725 9,6 V 7 C 9,7.275 9.225,7.5 9.5,7.5 9.775,7.5 10,7.275 10,7 V 6 C 10,5.725 9.775,5.5 9.5,5.5 Z"
       id="path67" />
    <path
       style="color:#000000;fill:#ffffec;-inkscape-stroke:none"
       d="M 12.5,4.5 C 12.5,4.225 12.275,4 12,4 H 11 C 10.725,4 10.5,4.225 10.5,4.5 10.5,4.775 10.725,5 11,5 h 1 c 0.275,0 0.5,-0.225 0.5,-0.5 z"
       id="path69" />
    <path
       style="color:#000000;fill:#ffffec;-inkscape-stroke:none"
       d="M 8,4 H 7 C 6.725,4 6.5,4.225 6.5,4.5 6.5,4.775 6.725,5 7,5 H 8 C 8.275,5 8.5,4.775 8.5,4.5 8.5,4.225 8.275,4 8,4 Z"
       id="path71" />
  </g>
  <defs
     id="defs78">
    <clipPath
       id="clip0_372_6823">
      <rect
         width="14"
         height="14"
         fill="white"
         id="rect75" />
    </clipPath>
  </defs>
</svg>
